<svg width="40" height="40" viewBox="0 0 40 40" fill="none" xmlns="http://www.w3.org/2000/svg">
<g clip-path="url(#clip0_59_158)">
<path d="M20 40C31.0457 40 40 31.0457 40 20C40 8.95431 31.0457 0 20 0C8.95431 0 0 8.95431 0 20C0 31.0457 8.95431 40 20 40Z" fill="#0F111A"/>
<path d="M15.8501 13.08V23.1C15.8501 24.34 15.4734 25.32 14.7199 26.04C13.9664 26.76 12.9765 27.12 11.7501 27.12C10.5232 27.12 9.53311 26.76 8.77992 26.04C8.02674 25.32 7.65015 24.34 7.65015 23.1H9.95015C9.96318 23.7134 10.1198 24.2 10.4199 24.56C10.7201 24.92 11.1635 25.1 11.7501 25.1C12.3362 25.1 12.7829 24.9168 13.0901 24.5502C13.3974 24.1837 13.5507 23.7003 13.5501 23.1V13.08H15.8501Z" fill="#FAF8F6"/>
<path d="M19.74 16.34C20.3548 15.2784 21.2466 14.4038 22.32 13.8098C23.4068 13.2036 24.5968 12.9003 25.8898 12.9C27.3713 12.9 28.688 13.2633 29.84 13.9898C30.992 14.7163 31.8286 15.7464 32.3498 17.08H29.6098C29.2498 16.3467 28.7498 15.8 28.1098 15.44C27.4698 15.08 26.7291 14.9 25.8876 14.9C24.9691 14.9 24.1491 15.1067 23.4276 15.52C22.7061 15.9334 22.1431 16.5267 21.7387 17.3C21.3322 18.0734 21.1288 18.9734 21.1285 20C21.1282 21.0267 21.3316 21.9267 21.7387 22.7C22.1455 23.4734 22.7085 24.07 23.4276 24.4898C24.1467 24.9097 24.9667 25.1197 25.8876 25.12C26.7276 25.12 27.4683 24.94 28.1098 24.58C28.7513 24.22 29.2513 23.6734 29.6098 22.94H32.3498C31.8298 24.2734 30.9932 25.3 29.84 26.02C28.6868 26.74 27.3701 27.1 25.8898 27.1C24.5831 27.1 23.3898 26.7966 22.3098 26.1898C21.2406 25.594 20.3526 24.7198 19.74 23.66C19.1068 22.58 18.7901 21.36 18.7898 20C18.7895 18.64 19.1062 17.42 19.74 16.34Z" fill="#FAF8F6"/>
</g>
<defs>
<clipPath id="clip0_59_158">
<rect width="40" height="40" fill="white"/>
</clipPath>
</defs>
</svg>
