<svg width="40" height="40" viewBox="0 0 40 40" fill="none" xmlns="http://www.w3.org/2000/svg">
<g clip-path="url(#clip0_102_151)">
<path d="M20 0C8.95422 0 0 8.95422 0 20C0 31.0458 8.95422 40 20 40C31.0458 40 40 31.0458 40 20C40 8.95422 31.0458 0 20 0ZM20 37.7778C10.1818 37.7778 2.22222 29.8182 2.22222 20C2.22222 10.1818 10.1818 2.22222 20 2.22222C29.8182 2.22222 37.7778 10.1818 37.7778 20C37.7778 29.8182 29.8182 37.7778 20 37.7778Z" fill="#FAF8F6"/>
<path d="M15.8501 13.0698V23.0903C15.8501 24.3303 15.4734 25.3103 14.7199 26.0303C13.9664 26.7503 12.9765 27.1106 11.7501 27.1112C10.5232 27.1112 9.53311 26.7513 8.77992 26.0316C8.02674 25.3119 7.65015 24.3319 7.65015 23.0916H9.95015C9.96318 23.7049 10.1198 24.1916 10.4199 24.5516C10.7201 24.9116 11.1635 25.0916 11.7501 25.0916C12.3362 25.0916 12.7829 24.9082 13.0901 24.5414C13.3974 24.1746 13.5507 23.6913 13.5501 23.0916V13.0698H15.8501Z" fill="#FAF8F6"/>
<path d="M19.74 16.3302C20.3545 15.2684 21.2464 14.3938 22.32 13.8C23.4068 13.1926 24.5967 12.8889 25.8898 12.8889C27.3713 12.8889 28.688 13.2522 29.84 13.9787C30.992 14.7052 31.8286 15.7351 32.3498 17.0685H29.6098C29.2498 16.3354 28.7498 15.7889 28.1098 15.4289C27.4698 15.0689 26.729 14.8889 25.8875 14.8889C24.969 14.8889 24.149 15.0954 23.4275 15.5085C22.7061 15.9215 22.1431 16.515 21.7387 17.2889C21.3321 18.0622 21.1287 18.9622 21.1284 19.9889C21.1281 21.0156 21.3315 21.9156 21.7387 22.6889C22.1455 23.4622 22.7084 24.0588 23.4275 24.4787C24.1467 24.8985 24.9674 25.1094 25.8898 25.1111C26.7298 25.1111 27.4705 24.9311 28.112 24.5711C28.7535 24.2111 29.2535 23.6646 29.612 22.9316H32.352C31.832 24.2649 30.9954 25.2914 29.8422 26.0111C28.689 26.7308 27.3723 27.091 25.892 27.0916C24.5853 27.0916 23.392 26.7882 22.312 26.1814C21.2429 25.5854 20.3549 24.7112 19.7422 23.6516C19.109 22.571 18.7923 21.351 18.792 19.9916C18.7917 18.6322 19.1077 17.4117 19.74 16.3302Z" fill="#FAF8F6"/>
</g>
<defs>
<clipPath id="clip0_102_151">
<rect width="40" height="40" fill="white"/>
</clipPath>
</defs>
</svg>
